<svg width="27" height="22" viewBox="0 0 27 22" fill="none" xmlns="http://www.w3.org/2000/svg">
<path fill-rule="evenodd" clip-rule="evenodd" d="M13.5003 4.33736L3.87113 12.2758C3.87113 12.2868 3.86813 12.3039 3.86211 12.3259C3.8561 12.349 3.85409 12.364 3.85409 12.376V20.4147C3.85409 20.7054 3.95933 20.9569 4.17179 21.1684C4.38426 21.3798 4.63481 21.4871 4.92545 21.4871H11.3566V15.0559H15.644V21.4871H22.0752C22.3648 21.4871 22.6164 21.3808 22.8288 21.1684C23.0413 20.9569 23.1465 20.7054 23.1465 20.4147V12.376C23.1465 12.3319 23.1405 12.2979 23.1295 12.2758L13.5003 4.33736Z" fill="#39474E"/>
<path fill-rule="evenodd" clip-rule="evenodd" d="M26.8138 10.467L23.1467 7.41931V0.586289C23.1467 0.429945 23.0966 0.301663 22.9954 0.201443C22.8962 0.10022 22.7669 0.0501102 22.6105 0.0501102H19.3955C19.2381 0.0501102 19.1098 0.10022 19.0096 0.201443C18.9094 0.301663 18.8593 0.429945 18.8593 0.586289V3.85147L14.7723 0.435959C14.4165 0.14532 13.9916 0 13.5005 0C13.0094 0 12.5845 0.14532 12.2277 0.435959L0.186225 10.467C0.0739777 10.5562 0.0128432 10.6765 0.001819 10.8268C-0.00920524 10.9781 0.0298807 11.1094 0.119077 11.2207L1.15736 12.4604C1.24656 12.5606 1.36381 12.6218 1.50913 12.6438C1.64343 12.6558 1.77772 12.6167 1.91102 12.5275L13.5005 2.8643L25.089 12.5275C25.1782 12.6047 25.2954 12.6438 25.4408 12.6438H25.4919C25.6362 12.6218 25.7524 12.5596 25.8426 12.4604L26.8809 11.2207C26.9701 11.1094 27.0092 10.9781 26.9982 10.8268C26.9872 10.6765 26.925 10.5562 26.8138 10.467Z" fill="#39474E"/>
</svg>
