<svg width="21" height="17" viewBox="0 0 21 17" fill="none" xmlns="http://www.w3.org/2000/svg">
<path fill-rule="evenodd" clip-rule="evenodd" d="M19.6319 14.5346L13.8217 8.43216L19.6319 2.32976V14.5346ZM2.22416 15.4352L8.06632 9.2982L10.1134 11.4303C10.3496 11.6761 10.7326 11.6761 10.9677 11.4292L12.9637 9.33284L18.7739 15.4352H2.22416ZM1.36748 14.5345V2.32303L7.20538 8.40309L1.36748 14.5345ZM18.7746 1.4291L10.5386 10.0804L2.23123 1.4291H18.7746ZM19.0265 0.155197H1.97349C0.972312 0.155197 0.155197 1.01228 0.155197 2.06604V14.7972C0.155197 15.8476 0.968056 16.7069 1.97349 16.7069H19.0265C20.0245 16.7069 20.8448 15.8543 20.8448 14.7972V2.06604C20.8448 1.01675 20.0309 0.155197 19.0265 0.155197Z" fill="#39474E"/>
<path d="M19.6319 14.5346L19.5195 14.6416L19.7871 14.9226V14.5346H19.6319ZM13.8217 8.43216L13.7093 8.32516L13.6074 8.43216L13.7093 8.53916L13.8217 8.43216ZM19.6319 2.32976H19.7871V1.94175L19.5195 2.22276L19.6319 2.32976ZM2.22416 15.4352L2.11177 15.3283L1.8622 15.5904H2.22416V15.4352ZM8.06632 9.2982L8.17825 9.19073L8.06584 9.07365L7.95393 9.19121L8.06632 9.2982ZM10.1134 11.4303L10.0014 11.5378L10.0015 11.5378L10.1134 11.4303ZM10.9677 11.4292L10.8553 11.3222L10.9677 11.4292ZM12.9637 9.33284L13.0761 9.22584L12.9637 9.10781L12.8513 9.22584L12.9637 9.33284ZM18.7739 15.4352V15.5904H19.1359L18.8863 15.3282L18.7739 15.4352ZM1.36748 14.5345H1.21231V14.9225L1.47986 14.6415L1.36748 14.5345ZM1.36748 2.32303L1.47941 2.21556L1.21231 1.93738V2.32303H1.36748ZM7.20538 8.40309L7.31776 8.51009L7.42007 8.40263L7.31731 8.29561L7.20538 8.40309ZM18.7746 1.4291L18.887 1.5361L19.1366 1.27393H18.7746V1.4291ZM10.5386 10.0804L10.4266 10.1879L10.539 10.3049L10.651 10.1874L10.5386 10.0804ZM2.23123 1.4291V1.27393H1.8671L2.1193 1.53658L2.23123 1.4291ZM19.7443 14.4276L13.934 8.32516L13.7093 8.53916L19.5195 14.6416L19.7443 14.4276ZM13.934 8.53916L19.7443 2.43676L19.5195 2.22276L13.7093 8.32516L13.934 8.53916ZM19.4767 2.32976V14.5346H19.7871V2.32976H19.4767ZM2.33655 15.5422L8.17871 9.40519L7.95393 9.19121L2.11177 15.3283L2.33655 15.5422ZM7.95438 9.40567L10.0014 11.5378L10.2253 11.3228L8.17825 9.19073L7.95438 9.40567ZM10.0015 11.5378C10.2986 11.8471 10.7837 11.8475 11.0801 11.5362L10.8553 11.3222C10.6814 11.5048 10.4005 11.5052 10.2253 11.3228L10.0015 11.5378ZM11.0801 11.5362L13.0761 9.43984L12.8513 9.22584L10.8553 11.3222L11.0801 11.5362ZM12.8513 9.43984L18.6615 15.5422L18.8863 15.3282L13.0761 9.22584L12.8513 9.43984ZM18.7739 15.2801H2.22416V15.5904H18.7739V15.2801ZM1.52265 14.5345V2.32303H1.21231V14.5345H1.52265ZM1.25555 2.43051L7.09345 8.51056L7.31731 8.29561L1.47941 2.21556L1.25555 2.43051ZM7.093 8.29609L1.2551 14.4275L1.47986 14.6415L7.31776 8.51009L7.093 8.29609ZM18.6622 1.32211L10.4262 9.97342L10.651 10.1874L18.887 1.5361L18.6622 1.32211ZM10.6505 9.97293L2.34316 1.32163L2.1193 1.53658L10.4266 10.1879L10.6505 9.97293ZM2.23123 1.58428H18.7746V1.27393H2.23123V1.58428ZM19.0265 2.52497e-05H1.97349V0.310369H19.0265V2.52497e-05ZM1.97349 2.52497e-05C0.879527 2.52497e-05 2.52497e-05 0.933845 2.52497e-05 2.06604H0.310369C0.310369 1.09072 1.0651 0.310369 1.97349 0.310369V2.52497e-05ZM2.52497e-05 2.06604V14.7972H0.310369V2.06604H2.52497e-05ZM2.52497e-05 14.7972C2.52497e-05 15.9257 0.874984 16.8621 1.97349 16.8621V16.5517C1.06113 16.5517 0.310369 15.7694 0.310369 14.7972H2.52497e-05ZM1.97349 16.8621H19.0265V16.5517H1.97349V16.8621ZM19.0265 16.8621C20.1168 16.8621 21 15.9332 21 14.7972H20.6896C20.6896 15.7753 19.9322 16.5517 19.0265 16.5517V16.8621ZM21 14.7972V2.06604H20.6896V14.7972H21ZM21 2.06604C21 0.938738 20.1241 2.52497e-05 19.0265 2.52497e-05V0.310369C19.9377 0.310369 20.6896 1.09477 20.6896 2.06604H21Z" fill="#39474E"/>
</svg>
